<svg width="42" height="93" viewBox="0 0 42 93" fill="none" xmlns="http://www.w3.org/2000/svg">
<path d="M16.9 50.5L15.4 50.2C7.60002 48.6 2.40002 40.9 3.90002 33.1L7.90002 12.8C9.40002 4.89997 17.1 -0.300029 25 1.29997L26.5 1.59997C34.4 3.09997 39.6 10.8 38 18.7L34 39C32.5 46.8 24.8 52 16.9 50.5Z" stroke="black" stroke-miterlimit="10"/>
<path d="M12.1001 31.4C8.60009 30.3 6.00009 28.9 5.20009 27.4C5.00009 27.7 4.9001 28 4.8001 28.3C4.6001 30.1 7.40009 32 11.7001 33.4L12.1001 31.4Z" fill="#265B91"/>
<path d="M35.2997 30.5C33.6997 32.7 27.2997 33.7 19.7997 32.9C18.2997 32.7 16.8997 32.5 15.4997 32.2L15.1997 34.2C16.5997 34.5 18.0997 34.7 19.6997 34.9C28.1997 35.8 35.2997 34.4 35.5997 31.6C35.5997 31.3 35.4997 30.9 35.2997 30.5Z" fill="#265B91"/>
<path d="M35.9998 26.8C34.3998 29 27.9998 30 20.4998 29.2C18.9998 29 17.4998 28.8 16.0998 28.5L15.7998 30.5C17.1998 30.8 18.7998 31.1 20.3998 31.2C28.8998 32.1 35.9998 30.7 36.2998 27.9C36.2998 27.6 36.1998 27.2 35.9998 26.8Z" fill="#265B91"/>
<path d="M12.7001 27.6C9.20015 26.5 6.70015 25.1 5.90015 23.6C5.70015 23.9 5.60014 24.2 5.50014 24.5C5.30014 26.3 8.00015 28.2 12.3001 29.6L12.7001 27.6Z" fill="#265B91"/>
<path d="M13.4001 23.6C10.0001 22.5 7.60005 21.1 6.80005 19.7C6.60005 20 6.50005 20.3 6.40005 20.6C6.20005 22.4 8.90005 24.3 13.1001 25.6L13.4001 23.6Z" fill="#265B91"/>
<path d="M36.8 22.8C35.2 25 28.8 26 21.3 25.2C19.7 25 18.2 24.8 16.8 24.5L16.5 26.5C18 26.8 19.6 27.1 21.2 27.3C29.7 28.2 36.8 26.8 37.1 24C37.1 23.6 37 23.2 36.8 22.8Z" fill="#265B91"/>
<path d="M13.9997 19.6C10.6997 18.5 8.29974 17.1 7.59974 15.7C7.39974 16 7.29974 16.3 7.19974 16.6C6.99974 18.4 9.59974 20.2 13.6997 21.6L13.9997 19.6Z" fill="#265B91"/>
<path d="M37.6001 18.9C36.0001 21.1 29.6001 22.1 22.1001 21.3C20.4001 21.1 18.9001 20.9 17.4001 20.5L17.1001 22.5C18.6001 22.8 20.3001 23.1 22.0001 23.3C30.5001 24.2 37.6001 22.8 37.9001 20C37.9001 19.7 37.8001 19.3 37.6001 18.9Z" fill="#265B91"/>
<path d="M27.7997 1.79999C26.8997 3.79999 26.3997 5.59999 26.1997 6.99999L28.0997 7.19999C28.3997 5.79999 28.8997 4.19999 29.6997 2.49999" fill="#265B91"/>
<path d="M24.1997 1C23.2997 3.2 22.7997 5.1 22.6997 6.6L24.4997 6.8C24.6997 5.3 25.2997 3.4 26.1997 1.4" fill="#265B91"/>
<path d="M20.2999 1.1C19.4999 3.2 19.1999 5 19.4999 6.3L21.1999 6.5C21.1999 5.1 21.6999 3.2 22.5999 1" fill="#265B91"/>
<path d="M19.2997 50.5C18.9997 48.4 18.8997 46.5 19.1997 45.1L21.0997 45.4C20.9997 46.8 21.0997 48.5 21.3997 50.3" fill="#265B91"/>
<path d="M15.6997 50.3C15.3997 48 15.3997 46 15.7997 44.5L17.5997 44.8C17.3997 46.3 17.4997 48.3 17.7997 50.5" fill="#265B91"/>
<path d="M11.8997 49.2C11.6997 46.9 11.8997 45.1 12.4997 44L14.1997 44.3C13.7997 45.7 13.7997 47.6 14.0997 49.9" fill="#265B91"/>
<path d="M35.9001 17.6C34.1001 17.6 32.6001 19.1 32.6001 20.9V56.7H39.1001C39.1001 56.7 39.2001 56.7 39.2001 56.6V20.9C39.2001 19.1 37.7001 17.6 35.9001 17.6Z" fill="#265B91"/>
<path d="M5 41.9V56.8H11.5C11.5 56.8 11.6 56.8 11.6 56.7V48.8L9.3 47.6C8.6 47.2 8 46.6 6.8 45.3L5 41.9Z" fill="#265B91"/>
<path d="M5.1001 54.9H39.1001V56.9H5.1001V54.9Z" fill="#265B91"/>
<path d="M19 73.2H23.8C24.2 73.2 24.6 73.5 24.6 74V81.4C24.6 81.6 24.7 81.8 24.9 82C26.6 83.4 29 85.2 32.2 86.6C35.4 88 38.3 88.7 40.4 88.9C40.8 89 41.1 89.3 41.1 89.7V91.9C41.1 92.3 40.8 92.7 40.3 92.7H0.800003C0.400003 92.7 0 92.4 0 91.9V89.6C0 89.2 0.300001 88.9 0.700001 88.7999C3 88.4999 5.9 87.8 9.1 86.6C12.9 85.2 15.8 83.4 17.9 81.7999C18.1 81.6999 18.2 81.4 18.2 81.2C18.2 78.8 18.2 76.3 18.2 73.9C18.2 73.5 18.6 73.2 19 73.2Z" fill="#265B91"/>
<path d="M20 56.8H22.7V73.2H20V56.8Z" fill="#265B91"/>
</svg>
